<svg width="129" height="37" viewBox="0 0 129 37" fill="none" xmlns="http://www.w3.org/2000/svg">
<path d="M87.528 30.536C87.336 30.696 86.976 30.912 86.448 31.184C85.936 31.456 85.304 31.696 84.552 31.904C83.8 32.112 82.968 32.208 82.056 32.192C80.664 32.16 79.416 31.912 78.312 31.448C77.224 30.968 76.296 30.32 75.528 29.504C74.776 28.688 74.2 27.752 73.8 26.696C73.4 25.64 73.2 24.512 73.2 23.312C73.2 21.968 73.4 20.736 73.8 19.616C74.216 18.496 74.8 17.528 75.552 16.712C76.32 15.896 77.232 15.264 78.288 14.816C79.344 14.368 80.512 14.144 81.792 14.144C82.976 14.144 84.024 14.304 84.936 14.624C85.848 14.944 86.592 15.288 87.168 15.656L85.8 18.944C85.4 18.64 84.864 18.328 84.192 18.008C83.536 17.672 82.776 17.504 81.912 17.504C81.016 17.504 80.176 17.752 79.392 18.248C78.624 18.744 78 19.416 77.52 20.264C77.056 21.096 76.824 22.048 76.824 23.12C76.824 24.256 77.04 25.256 77.472 26.12C77.904 26.968 78.52 27.632 79.32 28.112C80.12 28.592 81.056 28.832 82.128 28.832C83.072 28.832 83.88 28.68 84.552 28.376C85.224 28.072 85.736 27.752 86.088 27.416L87.528 30.536ZM100.446 18.608C99.7744 18.24 99.0864 17.936 98.3824 17.696C97.6944 17.456 97.0464 17.336 96.4384 17.336C95.6864 17.336 95.0944 17.488 94.6624 17.792C94.2304 18.096 94.0144 18.552 94.0144 19.16C94.0144 19.576 94.1744 19.952 94.4944 20.288C94.8304 20.608 95.2544 20.896 95.7664 21.152C96.2944 21.408 96.8384 21.64 97.3984 21.848C98.0864 22.104 98.7504 22.432 99.3904 22.832C100.03 23.216 100.558 23.752 100.974 24.44C101.39 25.112 101.598 26.008 101.598 27.128C101.598 28.024 101.366 28.856 100.902 29.624C100.438 30.392 99.7584 31.016 98.8624 31.496C97.9664 31.96 96.8624 32.192 95.5504 32.192C94.5424 32.192 93.5104 32.04 92.4544 31.736C91.4144 31.432 90.4304 30.952 89.5024 30.296L91.0384 27.584C91.6464 28.032 92.3424 28.4 93.1264 28.688C93.9104 28.976 94.6144 29.12 95.2384 29.12C95.6544 29.12 96.0704 29.064 96.4864 28.952C96.9184 28.824 97.2704 28.616 97.5424 28.328C97.8304 28.04 97.9744 27.64 97.9744 27.128C97.9744 26.776 97.8544 26.456 97.6144 26.168C97.3904 25.88 97.0784 25.616 96.6784 25.376C96.2944 25.136 95.8704 24.928 95.4064 24.752C94.8624 24.544 94.3024 24.304 93.7264 24.032C93.1504 23.76 92.6064 23.432 92.0944 23.048C91.5984 22.648 91.1904 22.16 90.8704 21.584C90.5664 20.992 90.4144 20.272 90.4144 19.424C90.4144 18.4 90.6384 17.512 91.0864 16.76C91.5504 16.008 92.1984 15.416 93.0304 14.984C93.8624 14.536 94.8224 14.288 95.9104 14.24C97.3344 14.24 98.4864 14.408 99.3664 14.744C100.262 15.08 101.062 15.48 101.766 15.944L100.446 18.608ZM114.439 18.608C113.767 18.24 113.079 17.936 112.375 17.696C111.687 17.456 111.039 17.336 110.431 17.336C109.679 17.336 109.087 17.488 108.655 17.792C108.223 18.096 108.007 18.552 108.007 19.16C108.007 19.576 108.167 19.952 108.487 20.288C108.823 20.608 109.247 20.896 109.759 21.152C110.287 21.408 110.831 21.64 111.391 21.848C112.079 22.104 112.743 22.432 113.383 22.832C114.023 23.216 114.551 23.752 114.967 24.44C115.383 25.112 115.591 26.008 115.591 27.128C115.591 28.024 115.359 28.856 114.895 29.624C114.431 30.392 113.751 31.016 112.855 31.496C111.959 31.96 110.855 32.192 109.543 32.192C108.535 32.192 107.503 32.04 106.447 31.736C105.407 31.432 104.423 30.952 103.495 30.296L105.031 27.584C105.639 28.032 106.335 28.4 107.119 28.688C107.903 28.976 108.607 29.12 109.231 29.12C109.647 29.12 110.063 29.064 110.479 28.952C110.911 28.824 111.263 28.616 111.535 28.328C111.823 28.04 111.967 27.64 111.967 27.128C111.967 26.776 111.847 26.456 111.607 26.168C111.383 25.88 111.071 25.616 110.671 25.376C110.287 25.136 109.863 24.928 109.399 24.752C108.855 24.544 108.295 24.304 107.719 24.032C107.143 23.76 106.599 23.432 106.087 23.048C105.591 22.648 105.183 22.16 104.863 21.584C104.559 20.992 104.407 20.272 104.407 19.424C104.407 18.4 104.631 17.512 105.079 16.76C105.543 16.008 106.191 15.416 107.023 14.984C107.855 14.536 108.815 14.288 109.903 14.24C111.327 14.24 112.479 14.408 113.359 14.744C114.255 15.08 115.055 15.48 115.759 15.944L114.439 18.608Z" fill="url(#paint0_linear_1_6)"/>
<path d="M119.4 14.2222L117.4 9.33333L113 7.11111L117.4 4.88889L119.4 0L121.4 4.88889L125.8 7.11111L121.4 9.33333L119.4 14.2222ZM125.8 16L124.8 13.5556L122.6 12.4444L124.8 11.3333L125.8 8.88889L126.8 11.3333L129 12.4444L126.8 13.5556L125.8 16Z" fill="url(#paint1_linear_1_6)"/>
<path d="M2.28 31V12.616H2.304L12.12 26.536L10.632 26.2L20.424 12.616H20.472V31H16.992V20.464L17.208 22.264L11.232 30.76H11.184L5.04 22.264L5.64 20.608V31H2.28ZM28.9018 31.288C27.9258 31.288 27.0378 31.096 26.2378 30.712C25.4538 30.312 24.8298 29.704 24.3658 28.888C23.9018 28.072 23.6698 27.032 23.6698 25.768C23.6698 24.584 23.9098 23.56 24.3898 22.696C24.8698 21.832 25.5018 21.168 26.2858 20.704C27.0698 20.224 27.9018 19.984 28.7818 19.984C29.8218 19.984 30.6058 20.16 31.1338 20.512C31.6778 20.848 32.1258 21.224 32.4778 21.64L32.3338 22.048L32.6458 20.512H35.7658V31H32.4058V28.72L32.6698 29.44C32.6378 29.44 32.5418 29.536 32.3818 29.728C32.2218 29.904 31.9818 30.12 31.6618 30.376C31.3578 30.616 30.9738 30.824 30.5098 31C30.0618 31.192 29.5258 31.288 28.9018 31.288ZM29.8618 28.552C30.4698 28.552 30.9818 28.424 31.3978 28.168C31.8138 27.896 32.1498 27.496 32.4058 26.968V24.4C32.2138 23.888 31.8778 23.48 31.3978 23.176C30.9338 22.872 30.3818 22.72 29.7418 22.72C29.2618 22.72 28.8138 22.848 28.3978 23.104C27.9978 23.344 27.6778 23.68 27.4378 24.112C27.1978 24.544 27.0778 25.04 27.0778 25.6C27.0778 26.16 27.2058 26.664 27.4618 27.112C27.7178 27.56 28.0538 27.912 28.4698 28.168C28.9018 28.424 29.3658 28.552 29.8618 28.552ZM44.652 36.28C43.708 36.28 42.908 36.168 42.252 35.944C41.612 35.72 41.068 35.448 40.62 35.128C40.172 34.808 39.772 34.504 39.42 34.216L41.388 31.912C41.756 32.248 42.18 32.568 42.66 32.872C43.156 33.192 43.804 33.352 44.604 33.352C45.404 33.352 46.1 33.144 46.692 32.728C47.3 32.328 47.604 31.736 47.604 30.952V28.648L47.724 29.248C47.468 29.792 47.004 30.272 46.332 30.688C45.66 31.088 44.78 31.288 43.692 31.288C42.748 31.288 41.868 31.048 41.052 30.568C40.252 30.072 39.612 29.408 39.132 28.576C38.652 27.728 38.412 26.768 38.412 25.696C38.412 24.592 38.668 23.616 39.18 22.768C39.692 21.904 40.356 21.224 41.172 20.728C41.988 20.232 42.852 19.984 43.764 19.984C44.676 19.984 45.46 20.12 46.116 20.392C46.788 20.648 47.292 20.968 47.628 21.352L47.508 21.664L47.868 20.512H50.964V31C50.964 32.024 50.676 32.928 50.1 33.712C49.524 34.512 48.756 35.136 47.796 35.584C46.852 36.048 45.804 36.28 44.652 36.28ZM41.796 25.6C41.796 26.16 41.924 26.664 42.18 27.112C42.436 27.56 42.78 27.912 43.212 28.168C43.66 28.424 44.156 28.552 44.7 28.552C45.388 28.552 45.964 28.424 46.428 28.168C46.908 27.896 47.3 27.496 47.604 26.968V24.4C47.38 23.888 47.012 23.48 46.5 23.176C45.988 22.872 45.388 22.72 44.7 22.72C44.156 22.72 43.66 22.848 43.212 23.104C42.78 23.344 42.436 23.68 42.18 24.112C41.924 24.544 41.796 25.04 41.796 25.6ZM54.4155 20.512H57.7755V31H54.4155V20.512ZM54.3435 16.792C54.3435 16.296 54.5355 15.888 54.9195 15.568C55.3195 15.248 55.7435 15.088 56.1915 15.088C56.6395 15.088 57.0475 15.248 57.4155 15.568C57.7995 15.888 57.9915 16.296 57.9915 16.792C57.9915 17.288 57.7995 17.696 57.4155 18.016C57.0475 18.32 56.6395 18.472 56.1915 18.472C55.7435 18.472 55.3195 18.32 54.9195 18.016C54.5355 17.696 54.3435 17.288 54.3435 16.792ZM70.1398 30.064C69.6758 30.432 69.0918 30.728 68.3878 30.952C67.6998 31.176 67.0198 31.288 66.3478 31.288C65.1478 31.288 64.0998 31.072 63.2038 30.64C62.3238 30.192 61.6358 29.56 61.1398 28.744C60.6598 27.912 60.4198 26.912 60.4198 25.744C60.4198 24.576 60.6838 23.584 61.2118 22.768C61.7398 21.936 62.4278 21.304 63.2758 20.872C64.1398 20.44 65.0438 20.224 65.9878 20.224C66.9318 20.224 67.7478 20.352 68.4358 20.608C69.1398 20.864 69.7398 21.2 70.2358 21.616L68.6038 23.776C68.3798 23.6 68.0678 23.424 67.6678 23.248C67.2838 23.056 66.8278 22.96 66.2998 22.96C65.8358 22.96 65.4118 23.08 65.0278 23.32C64.6438 23.56 64.3398 23.888 64.1158 24.304C63.8918 24.72 63.7798 25.2 63.7798 25.744C63.7798 26.256 63.8998 26.728 64.1398 27.16C64.3798 27.592 64.7078 27.936 65.1238 28.192C65.5558 28.432 66.0598 28.552 66.6358 28.552C67.0038 28.552 67.3398 28.504 67.6438 28.408C67.9638 28.296 68.2358 28.144 68.4598 27.952L70.1398 30.064Z" fill="black"/>
<defs>
<linearGradient id="paint0_linear_1_6" x1="94.6875" y1="36.8333" x2="94.6875" y2="1.83333" gradientUnits="userSpaceOnUse">
<stop stop-color="#001AFF"/>
<stop offset="1" stop-color="#00155E"/>
</linearGradient>
<linearGradient id="paint1_linear_1_6" x1="121" y1="0" x2="121" y2="16" gradientUnits="userSpaceOnUse">
<stop stop-color="#FFD600"/>
<stop offset="1" stop-color="#F18200"/>
</linearGradient>
</defs>
</svg>
